# xmcd
#
# Track frame offsets:
#	150
#	19606
#	34290
#	49114
#	65079
#	81928
#	96682
#	112162
#	132003
#	148358
#	166588
#	183120
#
# Disc length: 2635 seconds
#
# Revision: 0
# Processed by: cddbd v1.5.2PL0 Copyright (c) Steve Scherf et al.
# Submitted via: dBpowerAMP V4.0
#
DISCID=ab0a490c
DTITLE=Amber Lawrence - When it all comes down
DYEAR=2009
DGENRE=Country
TTITLE0=Best of your life
TTITLE1=Don't do lonely well
TTITLE2=Breathing still
TTITLE3=Out of my life
TTITLE4=Song to self
TTITLE5=Women like me (Don't like girls like you)
TTITLE6=Wrecking ball
TTITLE7=When it all comes down
TTITLE8=The good men
TTITLE9=Always kiss me goodnight
TTITLE10=The first time
TTITLE11=You say
EXTD=
EXTT0=
EXTT1=
EXTT2=
EXTT3=
EXTT4=
EXTT5=
EXTT6=
EXTT7=
EXTT8=
EXTT9=
EXTT10=
EXTT11=
PLAYORDER=
